<?xml version="1.0" encoding="UTF-8"?>
<svg width="3295px" height="3541px" viewBox="0 0 3295 3541" version="1.1" xmlns="http://www.w3.org/2000/svg" xmlns:xlink="http://www.w3.org/1999/xlink">
    <!-- Generator: Sketch 47.1 (45422) - http://www.bohemiancoding.com/sketch -->
    <title>Welcome to Abc Platf</title>
    <desc>Created with Sketch.</desc>
    <defs></defs>
    <g id="Page-1" stroke="none" stroke-width="1" fill="none" fill-rule="evenodd">
        <path d="M96.702,364 L158.9,227.8 L221.098,364 L277.848,364 L317.8,0.8 L260.707727,0.8 L254.465227,57.55 L243.699131,155.425572 L232.933035,253.300701 L221.727127,228.76342 L210.522105,204.226139 L184.710609,147.705799 L158.9,91.1850156 L133.089391,147.705799 L107.277895,204.226139 L96.072873,228.76342 L84.8669648,253.300701 L79.4841387,204.363137 L74.1008691,155.425129 L65.596793,78.1125645 L57.0922734,0.8 L0,0.8 L39.952,364 L96.702,364 Z M378.939628,364 L607.074628,364 L607.074628,307.25 L435.689628,307.25 L435.689628,193.75 L516.274628,193.75 L516.274628,137 L435.689628,137 L435.689628,57.55 L605.939628,57.55 L605.939628,0.8 L378.939628,0.8 L378.939628,364 Z M850.949257,364 L850.949257,307.25 L726.099257,307.25 L726.099257,0.8 L669.349257,0.8 L669.349257,364 L850.949257,364 Z M1112.22236,56.6385786 L1112.22735,56.6330073 L1112.22485,56.635793 L1112.22236,56.6385786 Z M1112.22735,56.6330073 L1112.22236,56.6385786 L1093.31026,77.7827051 C1080.82082,66.5759102 1057.06607,57.4799492 1040.28625,57.4799492 C996.461504,57.4799492 960.893885,93.0480117 960.893885,136.872313 L960.893885,227.923697 C960.893885,271.749328 996.462391,307.317834 1040.28758,307.317834 C1057.06696,307.317834 1080.82127,298.223203 1093.30981,287.017295 L1112.22485,308.164207 L1131.13945,329.311562 C1109.79702,348.459811 1069.20392,364 1040.53054,364 L1040.34388,364 C965.161662,364 904.143885,302.982223 904.143885,227.8 L904.143885,136.997783 C904.143885,61.8182207 965.159002,0.803103516 1040.33856,0.803103516 C1069.05672,0.803103516 1109.73539,16.3419629 1131.13989,35.4884375 L1112.22735,56.6330073 Z M1447.65851,227.8 C1447.67176,227.813245 1447.67725,227.861558 1447.67725,227.924411 C1447.67725,228.076144 1447.64527,228.3126 1447.61329,228.344889 L1447.61329,229.661223 C1447.61329,230.524 1447.61329,231.386777 1447.56762,232.249111 C1447.5224,233.974223 1447.43151,235.699777 1447.2954,237.424889 C1447.0684,240.829889 1446.70529,244.234889 1446.20562,247.639889 C1445.20674,254.449889 1443.6634,261.169 1441.66562,267.706777 C1439.66829,274.198889 1437.17129,280.554889 1434.22029,286.683889 C1431.26929,292.858111 1427.86429,298.805777 1424.00529,304.435111 C1420.10062,310.155777 1415.78762,315.512889 1411.11151,320.552111 C1406.16274,325.864 1400.7604,330.767111 1395.03974,335.216223 C1388.68374,340.165 1381.87374,344.568889 1374.70062,348.337 C1367.70929,352.059889 1360.39962,355.101777 1352.8634,357.507889 C1345.3724,359.914 1337.69962,361.639111 1329.9364,362.683223 C1323.8809,363.517486 1317.76742,363.945917 1311.66553,363.945917 C1310.12746,363.945917 1308.59012,363.918692 1307.05462,363.863889 C1299.24574,363.591223 1291.52774,362.683223 1283.8554,361.139889 C1276.22829,359.596111 1268.73729,357.326111 1261.47329,354.466 C1254.02751,351.515 1246.80874,347.928223 1239.99874,343.706111 C1233.18874,339.438777 1226.6514,334.626111 1220.65851,329.223777 C1219.1604,327.907 1217.70751,326.545 1216.30029,325.183 C1210.44351,319.508 1205.13162,313.288111 1200.41029,306.659889 C1195.7794,300.122111 1191.6934,293.130777 1188.24274,285.866777 C1184.79251,278.602777 1182.02329,271.020889 1179.93462,263.257223 C1177.80074,255.403111 1176.39351,247.367223 1175.71251,239.286111 C1175.5764,237.288777 1175.44029,235.291 1175.3494,233.248 C1175.30374,232.249111 1175.25851,231.205 1175.25851,230.206111 L1175.25851,228.526223 C1175.25851,228.435479 1175.21812,228.122863 1175.21812,227.911006 C1175.21812,227.805071 1175.22822,227.724331 1175.25851,227.709111 L1175.25851,135.683223 C1175.25851,133.413223 1175.3494,131.143223 1175.48551,128.873223 C1176.0304,119.566223 1177.52851,110.304889 1179.98029,101.270111 C1182.43162,92.281 1185.7914,83.5641113 1190.01351,75.256 C1194.23562,66.9931113 1199.27529,59.139 1205.0864,51.875 C1211.03362,44.4748887 1217.75274,37.6648887 1225.10762,31.6267773 C1233.55229,24.6802227 1242.81362,18.7782227 1252.66551,14.0568887 C1262.33562,9.426 1272.5054,6.021 1282.9474,3.751 C1292.29746,1.77399127 1301.87159,0.768438354 1311.43272,0.768438354 C1312.41014,0.768438354 1313.3874,0.778947357 1314.36429,0.8 C1324.89674,1.027 1335.3844,2.47988867 1345.5994,5.06777734 C1356.0414,7.74611133 1366.12029,11.7412227 1375.60862,16.7808887 C1385.23351,21.911 1394.1774,28.2217773 1402.30374,35.4857773 C1402.98474,36.1211113 1403.66574,36.7112227 1404.34674,37.347 C1409.79474,42.3862227 1414.78874,47.8798887 1419.32874,53.7362227 C1423.82351,59.5477773 1427.81862,65.722 1431.31451,72.1688887 C1434.8104,78.6157773 1437.7614,85.3348887 1440.16751,92.281 C1442.57362,99.2271113 1444.38962,106.355 1445.66074,113.573777 C1446.93229,120.928223 1447.61329,128.328777 1447.65851,135.774111 L1447.65851,227.8 Z M1387.45829,251.044889 C1389.77351,243.508223 1390.90851,235.654111 1390.9994,227.8 L1390.9994,135.774111 C1390.96911,135.743817 1390.95901,135.647948 1390.95901,135.528553 C1390.95901,135.289769 1390.9994,134.956855 1390.9994,134.866111 C1390.95374,134.593889 1390.95374,134.321223 1390.95374,134.049 C1390.90851,133.549777 1390.90851,133.004889 1390.86329,132.505223 C1390.81762,131.461111 1390.72674,130.462223 1390.63629,129.418111 C1390.45451,127.329889 1390.18229,125.286889 1389.81874,123.198223 C1389.09251,119.112223 1388.09362,115.071889 1386.73162,111.167223 C1384.00762,103.313111 1380.05774,95.8677773 1375.06374,89.2391113 C1369.61574,82.066 1362.94229,75.7552227 1355.40562,70.7612227 C1347.96029,65.8581113 1339.78829,62.1808887 1331.16229,60.0017773 C1324.74633,58.3717112 1318.11822,57.5364152 1311.5009,57.5364152 C1309.45562,57.5364152 1307.41137,57.616213 1305.37474,57.777 C1296.52174,58.5032227 1287.80529,60.5918887 1279.63329,64.1782227 C1271.23429,67.8558887 1263.51629,73.0312227 1256.8424,79.342 C1250.66774,85.1531113 1245.44674,91.9631113 1241.45162,99.4088887 C1237.50174,106.718111 1234.73251,114.617889 1233.27962,122.789889 C1232.5534,126.875889 1232.14462,131.007111 1232.05374,135.184 C1232.04292,135.314306 1232.04248,135.416036 1232.04247,135.495405 L1232.04248,135.516187 C1232.04248,135.749387 1232.03823,135.774111 1231.73629,135.774111 L1232.00851,135.774111 L1232.00851,227.8 C1232.00851,229.752111 1232.05374,231.659 1232.19029,233.565889 C1232.73474,241.374777 1234.46029,249.092777 1237.27474,256.402 C1240.08962,263.666 1243.94862,270.476 1248.6704,276.650223 C1253.93662,283.369777 1260.29262,289.271777 1267.37529,293.993111 C1274.3214,298.624 1281.99374,302.165111 1290.07529,304.389889 C1297.10805,306.318793 1304.31868,307.251732 1311.5811,307.251732 C1312.52312,307.251732 1313.46602,307.236034 1314.40951,307.204777 C1322.6724,306.932111 1330.88962,305.297889 1338.65329,302.483 C1346.68874,299.577223 1354.2254,295.309889 1360.89929,289.998 C1367.25529,284.913111 1372.88462,278.875 1377.42462,272.110223 C1381.78329,265.618111 1385.18829,258.490223 1387.45829,251.044889 Z M1725.58403,364 L1782.33403,364 L1782.33403,0.8 L1725.58403,0.8 L1646.13403,137 L1566.68403,0.8 L1509.93403,0.8 L1509.93403,364 L1566.68403,364 L1566.68403,113.427912 L1581.89924,139.511631 L1597.11489,165.594906 L1621.62424,207.611631 L1646.13403,249.627912 L1670.64426,207.611631 L1695.15361,165.594906 L1710.36926,139.511631 L1725.58403,113.427912 L1725.58403,364 Z M1843.47277,364 L2071.60777,364 L2071.60777,307.25 L1900.22277,307.25 L1900.22277,193.75 L1980.80777,193.75 L1980.80777,137 L1900.22277,137 L1900.22277,57.55 L2070.47277,57.55 L2070.47277,0.8 L1843.47277,0.8 L1843.47277,364 Z M2377.9858,364 L2434.7358,364 L2434.7358,57.55 L2519.85903,57.55 L2519.85903,0.8 L2292.86257,0.8 L2292.86257,57.55 L2377.9858,57.55 L2377.9858,364 Z M2847.72365,227.8 C2847.7369,227.813245 2847.74239,227.861558 2847.74239,227.924411 C2847.74239,228.076144 2847.71041,228.3126 2847.67843,228.344889 L2847.67843,229.661223 C2847.67843,230.524 2847.67843,231.386777 2847.63277,232.249111 C2847.58754,233.974223 2847.49665,235.699777 2847.36054,237.424889 C2847.13354,240.829889 2846.77043,244.234889 2846.27077,247.639889 C2845.27188,254.449889 2843.72854,261.169 2841.73077,267.706777 C2839.73343,274.198889 2837.23643,280.554889 2834.28543,286.683889 C2831.33443,292.858111 2827.92943,298.805777 2824.07043,304.435111 C2820.16577,310.155777 2815.85277,315.512889 2811.17665,320.552111 C2806.22788,325.864 2800.82554,330.767111 2795.10488,335.216223 C2788.74888,340.165 2781.93888,344.568889 2774.76577,348.337 C2767.77443,352.059889 2760.46477,355.101777 2752.92854,357.507889 C2745.43754,359.914 2737.76477,361.639111 2730.00154,362.683223 C2723.94604,363.517486 2717.83256,363.945917 2711.73068,363.945917 C2710.1926,363.945917 2708.65526,363.918692 2707.11977,363.863889 C2699.31088,363.591223 2691.59288,362.683223 2683.92054,361.139889 C2676.29343,359.596111 2668.80243,357.326111 2661.53843,354.466 C2654.09265,351.515 2646.87388,347.928223 2640.06388,343.706111 C2633.25388,339.438777 2626.71654,334.626111 2620.72365,329.223777 C2619.22554,327.907 2617.77265,326.545 2616.36543,325.183 C2610.50865,319.508 2605.19677,313.288111 2600.47543,306.659889 C2595.84454,300.122111 2591.75854,293.130777 2588.30788,285.866777 C2584.85765,278.602777 2582.08843,271.020889 2579.99977,263.257223 C2577.86588,255.403111 2576.45865,247.367223 2575.77765,239.286111 C2575.64154,237.288777 2575.50543,235.291 2575.41454,233.248 C2575.36888,232.249111 2575.32365,231.205 2575.32365,230.206111 L2575.32365,228.526223 C2575.32365,228.435479 2575.28326,228.122863 2575.28326,227.911006 C2575.28326,227.805071 2575.29336,227.724331 2575.32365,227.709111 L2575.32365,135.683223 C2575.32365,133.413223 2575.41454,131.143223 2575.55065,128.873223 C2576.09554,119.566223 2577.59365,110.304889 2580.04543,101.270111 C2582.49677,92.281 2585.85654,83.5641113 2590.07865,75.256 C2594.30077,66.9931113 2599.34043,59.139 2605.15154,51.875 C2611.09877,44.4748887 2617.81788,37.6648887 2625.17277,31.6267773 C2633.61743,24.6802227 2642.87877,18.7782227 2652.73065,14.0568887 C2662.40077,9.426 2672.57054,6.021 2683.01254,3.751 C2692.3626,1.77399127 2701.93673,0.768438354 2711.49786,0.768438354 C2712.47528,0.768438354 2713.45254,0.778947357 2714.42943,0.8 C2724.96188,1.027 2735.44954,2.47988867 2745.66454,5.06777734 C2756.10654,7.74611133 2766.18543,11.7412227 2775.67377,16.7808887 C2785.29865,21.911 2794.24254,28.2217773 2802.36888,35.4857773 C2803.04988,36.1211113 2803.73088,36.7112227 2804.41188,37.347 C2809.85988,42.3862227 2814.85388,47.8798887 2819.39388,53.7362227 C2823.88865,59.5477773 2827.88377,65.722 2831.37965,72.1688887 C2834.87554,78.6157773 2837.82654,85.3348887 2840.23265,92.281 C2842.63877,99.2271113 2844.45477,106.355 2845.72588,113.573777 C2846.99743,120.928223 2847.67843,128.328777 2847.72365,135.774111 L2847.72365,227.8 Z M2787.52343,251.044889 C2789.83865,243.508223 2790.97365,235.654111 2791.06454,227.8 L2791.06454,135.774111 C2791.03425,135.743817 2791.02415,135.647948 2791.02415,135.528553 C2791.02415,135.289769 2791.06454,134.956855 2791.06454,134.866111 C2791.01888,134.593889 2791.01888,134.321223 2791.01888,134.049 C2790.97365,133.549777 2790.97365,133.004889 2790.92843,132.505223 C2790.88277,131.461111 2790.79188,130.462223 2790.70143,129.418111 C2790.51965,127.329889 2790.24743,125.286889 2789.88388,123.198223 C2789.15765,119.112223 2788.15877,115.071889 2786.79677,111.167223 C2784.07277,103.313111 2780.12288,95.8677773 2775.12888,89.2391113 C2769.68088,82.066 2763.00743,75.7552227 2755.47077,70.7612227 C2748.02543,65.8581113 2739.85343,62.1808887 2731.22743,60.0017773 C2724.81147,58.3717112 2718.18336,57.5364152 2711.56604,57.5364152 C2709.52076,57.5364152 2707.47651,57.616213 2705.43988,57.777 C2696.58688,58.5032227 2687.87043,60.5918887 2679.69843,64.1782227 C2671.29943,67.8558887 2663.58143,73.0312227 2656.90754,79.342 C2650.73288,85.1531113 2645.51188,91.9631113 2641.51677,99.4088887 C2637.56688,106.718111 2634.79765,114.617889 2633.34477,122.789889 C2632.61854,126.875889 2632.20977,131.007111 2632.11888,135.184 C2632.10806,135.314306 2632.10762,135.416036 2632.10761,135.495405 L2632.10762,135.516187 C2632.10762,135.749387 2632.10337,135.774111 2631.80143,135.774111 L2632.07365,135.774111 L2632.07365,227.8 C2632.07365,229.752111 2632.11888,231.659 2632.25543,233.565889 C2632.79988,241.374777 2634.52543,249.092777 2637.33988,256.402 C2640.15477,263.666 2644.01377,270.476 2648.73554,276.650223 C2654.00177,283.369777 2660.35777,289.271777 2667.44043,293.993111 C2674.38654,298.624 2682.05888,302.165111 2690.14043,304.389889 C2697.17319,306.318793 2704.38382,307.251732 2711.64624,307.251732 C2712.58826,307.251732 2713.53116,307.236034 2714.47465,307.204777 C2722.73754,306.932111 2730.95477,305.297889 2738.71843,302.483 C2746.75388,299.577223 2754.29054,295.309889 2760.96443,289.998 C2767.32043,284.913111 2772.94977,278.875 2777.48977,272.110223 C2781.84843,265.618111 2785.25343,258.490223 2787.52343,251.044889 Z M58.2880137,999.225 L0,999.225 L85.125,636.025 L141.875,636.025 L227,999.225 L168.711986,999.225 L150.090893,919.775 L76.9091074,919.775 L58.2880137,999.225 Z M136.790111,863.025 L125.145277,813.339045 L113.5,763.65309 L101.854723,813.339045 L90.2098887,863.025 L136.790111,863.025 Z M289.274628,999.225 L289.274628,636.025 L374.399628,636.025 C427.65507,636.025887 470.877288,679.248992 470.877288,732.504434 C470.877288,748.292461 463.893492,771.849475 455.288773,785.086855 C488.957484,802.657188 516.282609,847.739299 516.282609,885.716576 C516.282609,948.37301 465.431062,999.224557 402.774628,999.225 L289.274628,999.225 Z M442.903085,925.853457 C452.106339,916.678135 459.576058,898.684395 459.576058,885.688645 C459.576058,854.382596 434.168462,828.975 402.862413,828.975 L346.024628,828.975 L346.024628,942.475 L402.928474,942.475 C415.869247,942.475 433.777419,935.028779 442.903085,925.853457 Z M346.024628,692.775 L346.024628,772.225 L374.456822,772.225 C396.384933,772.225 414.181822,754.428111 414.181822,732.5 C414.181822,710.571889 396.384933,692.775 374.456822,692.775 L346.024628,692.775 Z M714.749257,999.225 L714.935911,999.225 C743.609292,999.225 784.202389,983.684811 805.544823,964.536562 L786.630225,943.389207 L767.715184,922.242295 C755.226637,933.448203 731.472329,942.542834 714.69295,942.542834 C670.867762,942.542834 635.299257,906.974328 635.299257,863.148697 L635.299257,772.097313 C635.299257,728.273012 670.866876,692.704949 714.69162,692.704949 C731.471442,692.704949 755.226194,701.80091 767.715628,713.007705 L786.630225,691.860793 L805.545266,670.713438 C784.140762,651.566963 743.462096,636.028104 714.743936,636.028104 C639.564374,636.028104 578.549257,697.043221 578.549257,772.222783 L578.549257,863.025 C578.549257,938.207223 639.567034,999.225 714.749257,999.225 Z M56.75,1520.95 L56.75,1634.45 L0,1634.45 L0,1271.25 L102.15,1271.25 C171.067111,1271.25 227,1327.18289 227,1396.1 C227,1465.01711 171.067111,1520.95 102.15,1520.95 L56.75,1520.95 Z M56.75,1328 L56.75,1464.2 L102.246209,1464.2 C139.837764,1464.2 170.346209,1433.69111 170.346209,1396.1 C170.346209,1358.50889 139.837764,1328 102.246209,1328 L56.75,1328 Z M470.874628,1634.45 L470.874628,1577.7 L346.024628,1577.7 L346.024628,1271.25 L289.274628,1271.25 L289.274628,1634.45 L470.874628,1634.45 Z M589.16727,1634.45 L530.879257,1634.45 L616.004257,1271.25 L672.754257,1271.25 L757.879257,1634.45 L699.591243,1634.45 L680.970149,1555 L607.788364,1555 L589.16727,1634.45 Z M667.669368,1498.25 L656.024534,1448.56404 L644.379257,1398.87809 L632.733979,1448.56404 L621.089145,1498.25 L667.669368,1498.25 Z M855.340658,1634.45 L912.090658,1634.45 L912.090658,1328 L997.213885,1328 L997.213885,1271.25 L770.217432,1271.25 L770.217432,1328 L855.340658,1328 L855.340658,1634.45 Z M1116.23851,1464.2 L1196.82351,1464.2 L1196.82351,1407.45 L1116.23851,1407.45 L1116.23851,1328 L1286.48851,1328 L1286.48851,1271.25 L1059.48851,1271.25 L1059.48851,1634.45 L1116.23851,1634.45 L1116.23851,1464.2 Z M1609.81314,1498.25 C1609.82639,1498.26325 1609.83187,1498.31156 1609.83187,1498.37441 C1609.83187,1498.52614 1609.7999,1498.7626 1609.76792,1498.79489 L1609.76792,1500.11122 C1609.76792,1500.974 1609.76792,1501.83678 1609.72225,1502.69911 C1609.67703,1504.42422 1609.58614,1506.14978 1609.45003,1507.87489 C1609.22303,1511.27989 1608.85992,1514.68489 1608.36025,1518.08989 C1607.36136,1524.89989 1605.81803,1531.619 1603.82025,1538.15678 C1601.82292,1544.64889 1599.32592,1551.00489 1596.37492,1557.13389 C1593.42392,1563.30811 1590.01892,1569.25578 1586.15992,1574.88511 C1582.25525,1580.60578 1577.94225,1585.96289 1573.26614,1591.00211 C1568.31736,1596.314 1562.91503,1601.21711 1557.19436,1605.66622 C1550.83836,1610.615 1544.02836,1615.01889 1536.85525,1618.787 C1529.86392,1622.50989 1522.55425,1625.55178 1515.01803,1627.95789 C1507.52703,1630.364 1499.85425,1632.08911 1492.09103,1633.13322 C1486.03553,1633.96749 1479.92205,1634.39592 1473.82016,1634.39592 C1472.28209,1634.39592 1470.74474,1634.36869 1469.20925,1634.31389 C1461.40036,1634.04122 1453.68236,1633.13322 1446.01003,1631.58989 C1438.38292,1630.04611 1430.89192,1627.77611 1423.62792,1624.916 C1416.18214,1621.965 1408.96336,1618.37822 1402.15336,1614.15611 C1395.34336,1609.88878 1388.80603,1605.07611 1382.81314,1599.67378 C1381.31503,1598.357 1379.86214,1596.995 1378.45492,1595.633 C1372.59814,1589.958 1367.28625,1583.73811 1362.56492,1577.10989 C1357.93403,1570.57211 1353.84803,1563.58078 1350.39736,1556.31678 C1346.94714,1549.05278 1344.17792,1541.47089 1342.08925,1533.70722 C1339.95536,1525.85311 1338.54814,1517.81722 1337.86714,1509.73611 C1337.73103,1507.73878 1337.59492,1505.741 1337.50403,1503.698 C1337.45836,1502.69911 1337.41314,1501.655 1337.41314,1500.65611 L1337.41314,1498.97622 C1337.41314,1498.88548 1337.37275,1498.57286 1337.37275,1498.36101 C1337.37275,1498.25507 1337.38285,1498.17433 1337.41314,1498.15911 L1337.41314,1406.13322 C1337.41314,1403.86322 1337.50403,1401.59322 1337.64014,1399.32322 C1338.18503,1390.01622 1339.68314,1380.75489 1342.13492,1371.72011 C1344.58625,1362.731 1347.94603,1354.01411 1352.16814,1345.706 C1356.39025,1337.44311 1361.42992,1329.589 1367.24103,1322.325 C1373.18825,1314.92489 1379.90736,1308.11489 1387.26225,1302.07678 C1395.70692,1295.13022 1404.96825,1289.22822 1414.82014,1284.50689 C1424.49025,1279.876 1434.66003,1276.471 1445.10203,1274.201 C1454.45208,1272.22399 1464.02622,1271.21844 1473.58735,1271.21844 C1474.56476,1271.21844 1475.54203,1271.22895 1476.51892,1271.25 C1487.05136,1271.477 1497.53903,1272.92989 1507.75403,1275.51778 C1518.19603,1278.19611 1528.27492,1282.19122 1537.76325,1287.23089 C1547.38814,1292.361 1556.33203,1298.67178 1564.45836,1305.93578 C1565.13936,1306.57111 1565.82036,1307.16122 1566.50136,1307.797 C1571.94936,1312.83622 1576.94336,1318.32989 1581.48336,1324.18622 C1585.97814,1329.99778 1589.97325,1336.172 1593.46914,1342.61889 C1596.96503,1349.06578 1599.91603,1355.78489 1602.32214,1362.731 C1604.72825,1369.67711 1606.54425,1376.805 1607.81536,1384.02378 C1609.08692,1391.37822 1609.76792,1398.77878 1609.81314,1406.22411 L1609.81314,1498.25 Z M1549.61292,1521.49489 C1551.92814,1513.95822 1553.06314,1506.10411 1553.15403,1498.25 L1553.15403,1406.22411 C1553.12374,1406.19382 1553.11364,1406.09795 1553.11364,1405.97855 C1553.11364,1405.73977 1553.15403,1405.40685 1553.15403,1405.31611 C1553.10836,1405.04389 1553.10836,1404.77122 1553.10836,1404.499 C1553.06314,1403.99978 1553.06314,1403.45489 1553.01792,1402.95522 C1552.97225,1401.91111 1552.88136,1400.91222 1552.79092,1399.86811 C1552.60914,1397.77989 1552.33692,1395.73689 1551.97336,1393.64822 C1551.24714,1389.56222 1550.24825,1385.52189 1548.88625,1381.61722 C1546.16225,1373.76311 1542.21236,1366.31778 1537.21836,1359.68911 C1531.77036,1352.516 1525.09692,1346.20522 1517.56025,1341.21122 C1510.11492,1336.30811 1501.94292,1332.63089 1493.31692,1330.45178 C1486.90096,1328.82171 1480.27285,1327.98642 1473.65552,1327.98642 C1471.61025,1327.98642 1469.566,1328.06621 1467.52936,1328.227 C1458.67636,1328.95322 1449.95992,1331.04189 1441.78792,1334.62822 C1433.38892,1338.30589 1425.67092,1343.48122 1418.99703,1349.792 C1412.82236,1355.60311 1407.60136,1362.41311 1403.60625,1369.85889 C1399.65636,1377.16811 1396.88714,1385.06789 1395.43425,1393.23989 C1394.70803,1397.32589 1394.29925,1401.45711 1394.20836,1405.634 C1394.19755,1405.76431 1394.19711,1405.86604 1394.1971,1405.9454 L1394.19711,1405.96619 C1394.19711,1406.19939 1394.19286,1406.22411 1393.89092,1406.22411 L1394.16314,1406.22411 L1394.16314,1498.25 C1394.16314,1500.20211 1394.20836,1502.109 1394.34492,1504.01589 C1394.88936,1511.82478 1396.61492,1519.54278 1399.42936,1526.852 C1402.24425,1534.116 1406.10325,1540.926 1410.82503,1547.10022 C1416.09125,1553.81978 1422.44725,1559.72178 1429.52992,1564.44311 C1436.47603,1569.074 1444.14836,1572.61511 1452.22992,1574.83989 C1459.26268,1576.76879 1466.47331,1577.70173 1473.73572,1577.70173 C1474.67775,1577.70173 1475.62064,1577.68603 1476.56414,1577.65478 C1484.82703,1577.38211 1493.04425,1575.74789 1500.80792,1572.933 C1508.84336,1570.02722 1516.38003,1565.75989 1523.05392,1560.448 C1529.40992,1555.36311 1535.03925,1549.325 1539.57925,1542.56022 C1543.93792,1536.06811 1547.34292,1528.94022 1549.61292,1521.49489 Z M1774.23777,1271.25 C1843.15488,1271.25 1899.08777,1327.18289 1899.08777,1396.10044 C1899.08777,1431.28323 1875.96081,1476.58524 1847.46478,1497.22096 C1869.6957,1517.64476 1887.73777,1558.72156 1887.73777,1588.9099 L1887.73777,1634.45 L1830.98777,1634.45 L1830.98777,1588.92941 C1830.98777,1551.4048 1800.53297,1520.95 1763.00836,1520.95 L1728.83777,1520.95 L1728.83777,1634.45 L1672.08777,1634.45 L1672.08777,1271.25 L1774.23777,1271.25 Z M1728.83777,1464.2 L1774.33398,1464.2 C1811.92553,1464.2 1842.43398,1433.69111 1842.43398,1396.1 C1842.43398,1358.50889 1811.92553,1328 1774.33398,1328 L1728.83777,1328 L1728.83777,1464.2 Z M2177.01328,1634.45 L2233.76328,1634.45 L2233.76328,1271.25 L2177.01328,1271.25 L2097.56328,1407.45 L2018.11328,1271.25 L1961.36328,1271.25 L1961.36328,1634.45 L2018.11328,1634.45 L2018.11328,1383.87791 L2033.32849,1409.96163 L2048.54414,1436.04491 L2073.05349,1478.06163 L2097.56328,1520.07791 L2122.07352,1478.06163 L2146.58287,1436.04491 L2161.79852,1409.96163 L2177.01328,1383.87791 L2177.01328,1634.45 Z M2511.76365,1464.2 L2592.34865,1464.2 L2592.34865,1407.45 L2511.76365,1407.45 L2511.76365,1328 L2682.01365,1328 L2682.01365,1271.25 L2455.01365,1271.25 L2455.01365,1634.45 L2511.76365,1634.45 L2511.76365,1464.2 Z M3005.33828,1498.25 C3005.35153,1498.26325 3005.35701,1498.31156 3005.35701,1498.37441 C3005.35701,1498.52614 3005.32504,1498.7626 3005.29306,1498.79489 L3005.29306,1500.11122 C3005.29306,1500.974 3005.29306,1501.83678 3005.24739,1502.69911 C3005.20217,1504.42422 3005.11128,1506.14978 3004.97517,1507.87489 C3004.74817,1511.27989 3004.38506,1514.68489 3003.88539,1518.08989 C3002.88651,1524.89989 3001.34317,1531.619 2999.34539,1538.15678 C2997.34806,1544.64889 2994.85106,1551.00489 2991.90006,1557.13389 C2988.94906,1563.30811 2985.54406,1569.25578 2981.68506,1574.88511 C2977.78039,1580.60578 2973.46739,1585.96289 2968.79128,1591.00211 C2963.84251,1596.314 2958.44017,1601.21711 2952.71951,1605.66622 C2946.36351,1610.615 2939.55351,1615.01889 2932.38039,1618.787 C2925.38906,1622.50989 2918.07939,1625.55178 2910.54317,1627.95789 C2903.05217,1630.364 2895.37939,1632.08911 2887.61617,1633.13322 C2881.56067,1633.96749 2875.44719,1634.39592 2869.3453,1634.39592 C2867.80723,1634.39592 2866.26989,1634.36869 2864.73439,1634.31389 C2856.92551,1634.04122 2849.20751,1633.13322 2841.53517,1631.58989 C2833.90806,1630.04611 2826.41706,1627.77611 2819.15306,1624.916 C2811.70728,1621.965 2804.48851,1618.37822 2797.67851,1614.15611 C2790.86851,1609.88878 2784.33117,1605.07611 2778.33828,1599.67378 C2776.84017,1598.357 2775.38728,1596.995 2773.98006,1595.633 C2768.12328,1589.958 2762.81139,1583.73811 2758.09006,1577.10989 C2753.45917,1570.57211 2749.37317,1563.58078 2745.92251,1556.31678 C2742.47228,1549.05278 2739.70306,1541.47089 2737.61439,1533.70722 C2735.48051,1525.85311 2734.07328,1517.81722 2733.39228,1509.73611 C2733.25617,1507.73878 2733.12006,1505.741 2733.02917,1503.698 C2732.98351,1502.69911 2732.93828,1501.655 2732.93828,1500.65611 L2732.93828,1498.97622 C2732.93828,1498.88548 2732.89789,1498.57286 2732.89789,1498.36101 C2732.89789,1498.25507 2732.90799,1498.17433 2732.93828,1498.15911 L2732.93828,1406.13322 C2732.93828,1403.86322 2733.02917,1401.59322 2733.16528,1399.32322 C2733.71017,1390.01622 2735.20828,1380.75489 2737.66006,1371.72011 C2740.11139,1362.731 2743.47117,1354.01411 2747.69328,1345.706 C2751.91539,1337.44311 2756.95506,1329.589 2762.76617,1322.325 C2768.71339,1314.92489 2775.43251,1308.11489 2782.78739,1302.07678 C2791.23206,1295.13022 2800.49339,1289.22822 2810.34528,1284.50689 C2820.01539,1279.876 2830.18517,1276.471 2840.62717,1274.201 C2849.97723,1272.22399 2859.55136,1271.21844 2869.11249,1271.21844 C2870.08991,1271.21844 2871.06717,1271.22895 2872.04406,1271.25 C2882.57651,1271.477 2893.06417,1272.92989 2903.27917,1275.51778 C2913.72117,1278.19611 2923.80006,1282.19122 2933.28839,1287.23089 C2942.91328,1292.361 2951.85717,1298.67178 2959.98351,1305.93578 C2960.66451,1306.57111 2961.34551,1307.16122 2962.02651,1307.797 C2967.47451,1312.83622 2972.46851,1318.32989 2977.00851,1324.18622 C2981.50328,1329.99778 2985.49839,1336.172 2988.99428,1342.61889 C2992.49017,1349.06578 2995.44117,1355.78489 2997.84728,1362.731 C3000.25339,1369.67711 3002.06939,1376.805 3003.34051,1384.02378 C3004.61206,1391.37822 3005.29306,1398.77878 3005.33828,1406.22411 L3005.33828,1498.25 Z M2945.13806,1521.49489 C2947.45328,1513.95822 2948.58828,1506.10411 2948.67917,1498.25 L2948.67917,1406.22411 C2948.64888,1406.19382 2948.63878,1406.09795 2948.63878,1405.97855 C2948.63878,1405.73977 2948.67917,1405.40685 2948.67917,1405.31611 C2948.63351,1405.04389 2948.63351,1404.77122 2948.63351,1404.499 C2948.58828,1403.99978 2948.58828,1403.45489 2948.54306,1402.95522 C2948.49739,1401.91111 2948.40651,1400.91222 2948.31606,1399.86811 C2948.13428,1397.77989 2947.86206,1395.73689 2947.49851,1393.64822 C2946.77228,1389.56222 2945.77339,1385.52189 2944.41139,1381.61722 C2941.68739,1373.76311 2937.73751,1366.31778 2932.74351,1359.68911 C2927.29551,1352.516 2920.62206,1346.20522 2913.08539,1341.21122 C2905.64006,1336.30811 2897.46806,1332.63089 2888.84206,1330.45178 C2882.4261,1328.82171 2875.79799,1327.98642 2869.18067,1327.98642 C2867.13539,1327.98642 2865.09114,1328.06621 2863.05451,1328.227 C2854.20151,1328.95322 2845.48506,1331.04189 2837.31306,1334.62822 C2828.91406,1338.30589 2821.19606,1343.48122 2814.52217,1349.792 C2808.34751,1355.60311 2803.12651,1362.41311 2799.13139,1369.85889 C2795.18151,1377.16811 2792.41228,1385.06789 2790.95939,1393.23989 C2790.23317,1397.32589 2789.82439,1401.45711 2789.73351,1405.634 C2789.72269,1405.76431 2789.72225,1405.86604 2789.72224,1405.9454 L2789.72225,1405.96619 C2789.72225,1406.19939 2789.718,1406.22411 2789.41606,1406.22411 L2789.68828,1406.22411 L2789.68828,1498.25 C2789.68828,1500.20211 2789.73351,1502.109 2789.87006,1504.01589 C2790.41451,1511.82478 2792.14006,1519.54278 2794.95451,1526.852 C2797.76939,1534.116 2801.62839,1540.926 2806.35017,1547.10022 C2811.61639,1553.81978 2817.97239,1559.72178 2825.05506,1564.44311 C2832.00117,1569.074 2839.67351,1572.61511 2847.75506,1574.83989 C2854.78782,1576.76879 2861.99845,1577.70173 2869.26086,1577.70173 C2870.20289,1577.70173 2871.14579,1577.68603 2872.08928,1577.65478 C2880.35217,1577.38211 2888.56939,1575.74789 2896.33306,1572.933 C2904.36851,1570.02722 2911.90517,1565.75989 2918.57906,1560.448 C2924.93506,1555.36311 2930.56439,1549.325 2935.10439,1542.56022 C2939.46306,1536.06811 2942.86806,1528.94022 2945.13806,1521.49489 Z M3169.76291,1271.25 C3238.68002,1271.25 3294.61291,1327.18289 3294.61291,1396.10044 C3294.61291,1431.28323 3271.48596,1476.58524 3242.98992,1497.22096 C3265.22084,1517.64476 3283.26291,1558.72156 3283.26291,1588.9099 L3283.26291,1634.45 L3226.51291,1634.45 L3226.51291,1588.92941 C3226.51291,1551.4048 3196.05811,1520.95 3158.5335,1520.95 L3124.36291,1520.95 L3124.36291,1634.45 L3067.61291,1634.45 L3067.61291,1271.25 L3169.76291,1271.25 Z M3124.36291,1464.2 L3169.85912,1464.2 C3207.45067,1464.2 3237.95912,1433.69111 3237.95912,1396.1 C3237.95912,1358.50889 3207.45067,1328 3169.85912,1328 L3124.36291,1328 L3124.36291,1464.2 Z M0,2269.675 L0,1906.475 L85.125,1906.475 C138.380441,1906.47589 181.60266,1949.69899 181.60266,2002.95443 C181.60266,2018.74246 174.618863,2042.29947 166.014145,2055.53686 C199.682855,2073.10719 227.00798,2118.1893 227.00798,2156.16658 C227.00798,2218.82301 176.156434,2269.67456 113.5,2269.675 L0,2269.675 Z M153.628457,2196.30346 C162.831711,2187.12813 170.30143,2169.13439 170.30143,2156.13864 C170.30143,2124.8326 144.893834,2099.425 113.587785,2099.425 L56.75,2099.425 L56.75,2212.925 L113.653846,2212.925 C126.594619,2212.925 144.502791,2205.47878 153.628457,2196.30346 Z M56.75,1963.225 L56.75,2042.675 L85.1821934,2042.675 C107.110305,2042.675 124.907193,2024.87811 124.907193,2002.95 C124.907193,1981.02189 107.110305,1963.225 85.1821934,1963.225 L56.75,1963.225 Z M346.024628,1906.475 L289.274628,1906.475 L289.274628,2269.675 L346.024628,2269.675 L346.024628,1906.475 Z M680.699257,2133.475 C680.712502,2133.48825 680.717989,2133.53656 680.717989,2133.59941 C680.717989,2133.75114 680.686011,2133.9876 680.654034,2134.01989 L680.654034,2135.33622 C680.654034,2136.199 680.654034,2137.06178 680.608368,2137.92411 C680.563145,2139.64922 680.472257,2141.37478 680.336145,2143.09989 C680.109145,2146.50489 679.746034,2149.90989 679.246368,2153.31489 C678.247479,2160.12489 676.704145,2166.844 674.706368,2173.38178 C672.709034,2179.87389 670.212034,2186.22989 667.261034,2192.35889 C664.310034,2198.53311 660.905034,2204.48078 657.046034,2210.11011 C653.141368,2215.83078 648.828368,2221.18789 644.152257,2226.22711 C639.203479,2231.539 633.801145,2236.44211 628.080479,2240.89122 C621.724479,2245.84 614.914479,2250.24389 607.741368,2254.012 C600.750034,2257.73489 593.440368,2260.77678 585.904145,2263.18289 C578.413145,2265.589 570.740368,2267.31411 562.977145,2268.35822 C556.921646,2269.19249 550.808164,2269.62092 544.706278,2269.62092 C543.168202,2269.62092 541.63086,2269.59369 540.095368,2269.53889 C532.286479,2269.26622 524.568479,2268.35822 516.896145,2266.81489 C509.269034,2265.27111 501.778034,2263.00111 494.514034,2260.141 C487.068257,2257.19 479.849479,2253.60322 473.039479,2249.38111 C466.229479,2245.11378 459.692145,2240.30111 453.699257,2234.89878 C452.201145,2233.582 450.748257,2232.22 449.341034,2230.858 C443.484257,2225.183 438.172368,2218.96311 433.451034,2212.33489 C428.820145,2205.79711 424.734145,2198.80578 421.283479,2191.54178 C417.833257,2184.27778 415.064034,2176.69589 412.975368,2168.93222 C410.841479,2161.07811 409.434257,2153.04222 408.753257,2144.96111 C408.617145,2142.96378 408.481034,2140.966 408.390145,2138.923 C408.344479,2137.92411 408.299257,2136.88 408.299257,2135.88111 L408.299257,2134.20122 C408.299257,2134.11048 408.258862,2133.79786 408.258862,2133.58601 C408.258862,2133.48007 408.268963,2133.39933 408.299257,2133.38411 L408.299257,2041.35822 C408.299257,2039.08822 408.390145,2036.81822 408.526257,2034.54822 C409.071145,2025.24122 410.569257,2015.97989 413.021034,2006.94511 C415.472368,1997.956 418.832145,1989.23911 423.054257,1980.931 C427.276368,1972.66811 432.316034,1964.814 438.127145,1957.55 C444.074368,1950.14989 450.793479,1943.33989 458.148368,1937.30178 C466.593034,1930.35522 475.854368,1924.45322 485.706257,1919.73189 C495.376368,1915.101 505.546145,1911.696 515.988145,1909.426 C525.3382,1907.44899 534.912331,1906.44344 544.473466,1906.44344 C545.450879,1906.44344 546.428147,1906.45395 547.405034,1906.475 C557.937479,1906.702 568.425145,1908.15489 578.640145,1910.74278 C589.082145,1913.42111 599.161034,1917.41622 608.649368,1922.45589 C618.274257,1927.586 627.218145,1933.89678 635.344479,1941.16078 C636.025479,1941.79611 636.706479,1942.38622 637.387479,1943.022 C642.835479,1948.06122 647.829479,1953.55489 652.369479,1959.41122 C656.864257,1965.22278 660.859368,1971.397 664.355257,1977.84389 C667.851145,1984.29078 670.802145,1991.00989 673.208257,1997.956 C675.614368,2004.90211 677.430368,2012.03 678.701479,2019.24878 C679.973034,2026.60322 680.654034,2034.00378 680.699257,2041.44911 L680.699257,2133.475 Z M620.499034,2156.71989 C622.814257,2149.18322 623.949257,2141.32911 624.040145,2133.475 L624.040145,2041.44911 C624.009851,2041.41882 623.999751,2041.32295 623.999751,2041.20355 C623.999751,2040.96477 624.040145,2040.63185 624.040145,2040.54111 C623.994479,2040.26889 623.994479,2039.99622 623.994479,2039.724 C623.949257,2039.22478 623.949257,2038.67989 623.904034,2038.18022 C623.858368,2037.13611 623.767479,2036.13722 623.677034,2035.09311 C623.495257,2033.00489 623.223034,2030.96189 622.859479,2028.87322 C622.133257,2024.78722 621.134368,2020.74689 619.772368,2016.84222 C617.048368,2008.98811 613.098479,2001.54278 608.104479,1994.91411 C602.656479,1987.741 595.983034,1981.43022 588.446368,1976.43622 C581.001034,1971.53311 572.829034,1967.85589 564.203034,1965.67678 C557.787076,1964.04671 551.158965,1963.21142 544.541639,1963.21142 C542.496367,1963.21142 540.452113,1963.29121 538.415479,1963.452 C529.562479,1964.17822 520.846034,1966.26689 512.674034,1969.85322 C504.275034,1973.53089 496.557034,1978.70622 489.883145,1985.017 C483.708479,1990.82811 478.487479,1997.63811 474.492368,2005.08389 C470.542479,2012.39311 467.773257,2020.29289 466.320368,2028.46489 C465.594145,2032.55089 465.185368,2036.68211 465.094479,2040.859 C465.083665,2040.98931 465.083222,2041.09104 465.083215,2041.1704 L465.083222,2041.19119 C465.083222,2041.42439 465.078976,2041.44911 464.777034,2041.44911 L465.049257,2041.44911 L465.049257,2133.475 C465.049257,2135.42711 465.094479,2137.334 465.231034,2139.24089 C465.775479,2147.04978 467.501034,2154.76778 470.315479,2162.077 C473.130368,2169.341 476.989368,2176.151 481.711145,2182.32522 C486.977368,2189.04478 493.333368,2194.94678 500.416034,2199.66811 C507.362145,2204.299 515.034479,2207.84011 523.116034,2210.06489 C530.148794,2211.99379 537.359425,2212.92673 544.621839,2212.92673 C545.563866,2212.92673 546.50676,2212.91103 547.450257,2212.87978 C555.713145,2212.60711 563.930368,2210.97289 571.694034,2208.158 C579.729479,2205.25222 587.266145,2200.98489 593.940034,2195.673 C600.296034,2190.58811 605.925368,2184.55 610.465368,2177.78522 C614.824034,2171.29311 618.229034,2164.16522 620.499034,2156.71989 Z M924.573885,2269.675 L924.573885,2212.925 L799.723885,2212.925 L799.723885,1906.475 L742.973885,1906.475 L742.973885,2269.675 L924.573885,2269.675 Z M1250.16851,2133.475 C1250.18176,2133.48825 1250.18725,2133.53656 1250.18725,2133.59941 C1250.18725,2133.75114 1250.15527,2133.9876 1250.12329,2134.01989 L1250.12329,2135.33622 C1250.12329,2136.199 1250.12329,2137.06178 1250.07762,2137.92411 C1250.0324,2139.64922 1249.94151,2141.37478 1249.8054,2143.09989 C1249.5784,2146.50489 1249.21529,2149.90989 1248.71562,2153.31489 C1247.71674,2160.12489 1246.1734,2166.844 1244.17562,2173.38178 C1242.17829,2179.87389 1239.68129,2186.22989 1236.73029,2192.35889 C1233.77929,2198.53311 1230.37429,2204.48078 1226.51529,2210.11011 C1222.61062,2215.83078 1218.29762,2221.18789 1213.62151,2226.22711 C1208.67274,2231.539 1203.2704,2236.44211 1197.54974,2240.89122 C1191.19374,2245.84 1184.38374,2250.24389 1177.21062,2254.012 C1170.21929,2257.73489 1162.90962,2260.77678 1155.3734,2263.18289 C1147.8824,2265.589 1140.20962,2267.31411 1132.4464,2268.35822 C1126.3909,2269.19249 1120.27742,2269.62092 1114.17553,2269.62092 C1112.63746,2269.62092 1111.10012,2269.59369 1109.56462,2269.53889 C1101.75574,2269.26622 1094.03774,2268.35822 1086.3654,2266.81489 C1078.73829,2265.27111 1071.24729,2263.00111 1063.98329,2260.141 C1056.53751,2257.19 1049.31874,2253.60322 1042.50874,2249.38111 C1035.69874,2245.11378 1029.1614,2240.30111 1023.16851,2234.89878 C1021.6704,2233.582 1020.21751,2232.22 1018.81029,2230.858 C1012.95351,2225.183 1007.64162,2218.96311 1002.92029,2212.33489 C998.289402,2205.79711 994.203402,2198.80578 990.752736,2191.54178 C987.302513,2184.27778 984.533291,2176.69589 982.444624,2168.93222 C980.310736,2161.07811 978.903513,2153.04222 978.222513,2144.96111 C978.086402,2142.96378 977.950291,2140.966 977.859402,2138.923 C977.813736,2137.92411 977.768513,2136.88 977.768513,2135.88111 L977.768513,2134.20122 C977.768513,2134.11048 977.728119,2133.79786 977.728119,2133.58601 C977.728119,2133.48007 977.738219,2133.39933 977.768513,2133.38411 L977.768513,2041.35822 C977.768513,2039.08822 977.859402,2036.81822 977.995513,2034.54822 C978.540402,2025.24122 980.038513,2015.97989 982.490291,2006.94511 C984.941624,1997.956 988.301402,1989.23911 992.523513,1980.931 C996.745624,1972.66811 1001.78529,1964.814 1007.5964,1957.55 C1013.54362,1950.14989 1020.26274,1943.33989 1027.61762,1937.30178 C1036.06229,1930.35522 1045.32362,1924.45322 1055.17551,1919.73189 C1064.84562,1915.101 1075.0154,1911.696 1085.4574,1909.426 C1094.80746,1907.44899 1104.38159,1906.44344 1113.94272,1906.44344 C1114.92014,1906.44344 1115.8974,1906.45395 1116.87429,1906.475 C1127.40674,1906.702 1137.8944,1908.15489 1148.1094,1910.74278 C1158.5514,1913.42111 1168.63029,1917.41622 1178.11862,1922.45589 C1187.74351,1927.586 1196.6874,1933.89678 1204.81374,1941.16078 C1205.49474,1941.79611 1206.17574,1942.38622 1206.85674,1943.022 C1212.30474,1948.06122 1217.29874,1953.55489 1221.83874,1959.41122 C1226.33351,1965.22278 1230.32862,1971.397 1233.82451,1977.84389 C1237.3204,1984.29078 1240.2714,1991.00989 1242.67751,1997.956 C1245.08362,2004.90211 1246.89962,2012.03 1248.17074,2019.24878 C1249.44229,2026.60322 1250.12329,2034.00378 1250.16851,2041.44911 L1250.16851,2133.475 Z M1189.96829,2156.71989 C1192.28351,2149.18322 1193.41851,2141.32911 1193.5094,2133.475 L1193.5094,2041.44911 C1193.47911,2041.41882 1193.46901,2041.32295 1193.46901,2041.20355 C1193.46901,2040.96477 1193.5094,2040.63185 1193.5094,2040.54111 C1193.46374,2040.26889 1193.46374,2039.99622 1193.46374,2039.724 C1193.41851,2039.22478 1193.41851,2038.67989 1193.37329,2038.18022 C1193.32762,2037.13611 1193.23674,2036.13722 1193.14629,2035.09311 C1192.96451,2033.00489 1192.69229,2030.96189 1192.32874,2028.87322 C1191.60251,2024.78722 1190.60362,2020.74689 1189.24162,2016.84222 C1186.51762,2008.98811 1182.56774,2001.54278 1177.57374,1994.91411 C1172.12574,1987.741 1165.45229,1981.43022 1157.91562,1976.43622 C1150.47029,1971.53311 1142.29829,1967.85589 1133.67229,1965.67678 C1127.25633,1964.04671 1120.62822,1963.21142 1114.0109,1963.21142 C1111.96562,1963.21142 1109.92137,1963.29121 1107.88474,1963.452 C1099.03174,1964.17822 1090.31529,1966.26689 1082.14329,1969.85322 C1073.74429,1973.53089 1066.02629,1978.70622 1059.3524,1985.017 C1053.17774,1990.82811 1047.95674,1997.63811 1043.96162,2005.08389 C1040.01174,2012.39311 1037.24251,2020.29289 1035.78962,2028.46489 C1035.0634,2032.55089 1034.65462,2036.68211 1034.56374,2040.859 C1034.55292,2040.98931 1034.55248,2041.09104 1034.55247,2041.1704 L1034.55248,2041.19119 C1034.55248,2041.42439 1034.54823,2041.44911 1034.24629,2041.44911 L1034.51851,2041.44911 L1034.51851,2133.475 C1034.51851,2135.42711 1034.56374,2137.334 1034.70029,2139.24089 C1035.24474,2147.04978 1036.97029,2154.76778 1039.78474,2162.077 C1042.59962,2169.341 1046.45862,2176.151 1051.1804,2182.32522 C1056.44662,2189.04478 1062.80262,2194.94678 1069.88529,2199.66811 C1076.8314,2204.299 1084.50374,2207.84011 1092.58529,2210.06489 C1099.61805,2211.99379 1106.82868,2212.92673 1114.0911,2212.92673 C1115.03312,2212.92673 1115.97602,2212.91103 1116.91951,2212.87978 C1125.1824,2212.60711 1133.39962,2210.97289 1141.16329,2208.158 C1149.19874,2205.25222 1156.7354,2200.98489 1163.40929,2195.673 C1169.76529,2190.58811 1175.39462,2184.55 1179.93462,2177.78522 C1184.29329,2171.29311 1187.69829,2164.16522 1189.96829,2156.71989 Z M1539.43826,2234.98568 C1564.50048,2212.62219 1584.84092,2167.21066 1584.84092,2133.62131 L1584.84092,2076.725 L1471.34314,2076.725 L1471.34314,2133.475 L1528.09092,2133.475 C1528.09092,2133.53441 1528.09137,2133.63106 1528.09137,2133.69047 C1528.09137,2151.80702 1517.66622,2176.879 1504.82076,2189.65484 C1497.55484,2196.92077 1488.88519,2202.99728 1478.51315,2207.13739 C1470.01545,2210.49362 1460.4902,2212.925 1448.64181,2212.925 C1437.49068,2212.925 1428.28441,2210.80374 1420.17637,2207.6938 C1409.18706,2203.48361 1400.08391,2197.26334 1392.4633,2189.65484 C1379.61829,2176.879 1369.1927,2151.80747 1369.1927,2133.69047 C1369.1927,2133.63106 1369.19314,2133.53441 1369.19314,2133.475 L1369.19314,2042.54731 C1369.19314,1998.72301 1404.76076,1963.15495 1448.5855,1963.15495 C1465.36533,1963.15495 1489.12008,1972.25091 1501.60951,1983.45771 C1514.21938,1969.3596 1526.82926,1955.26151 1539.43915,1941.16344 C1518.03465,1922.01696 1477.35598,1906.4781 1448.63782,1906.4781 C1373.45826,1906.4781 1312.44314,1967.49322 1312.44314,2042.67278 L1312.44314,2133.62087 C1312.44314,2167.21066 1332.78358,2212.62174 1357.8458,2234.98612 L1357.84536,2234.98656 C1358.60072,2235.66242 1359.35773,2236.33913 1360.13575,2236.99099 C1372.0939,2247.33317 1386.1265,2255.70924 1402.45795,2261.63778 C1415.72595,2266.41997 1430.66513,2269.675 1448.64092,2269.675 L1448.64314,2269.675 C1450.16531,2269.675 1451.67679,2269.64225 1453.14457,2269.59298 C1470.58892,2269.03378 1485.1885,2265.43776 1498.19387,2260.37554 C1514.127,2254.136 1527.71305,2245.47834 1539.43915,2234.98656 L1539.43826,2234.98568 Z M1703.86777,1906.475 L1647.11777,1906.475 L1647.11777,2269.675 L1703.86777,2269.675 L1703.86777,1906.475 Z M1974.2167,1962.31825 L1974.23004,1962.30334 L1974.22337,1962.31079 L1974.2167,1962.31825 Z M1974.23004,1962.30334 L1974.2167,1962.31825 L1955.30877,1983.45771 C1942.81934,1972.25091 1919.06458,1963.15495 1902.28476,1963.15495 C1858.46002,1963.15495 1822.8924,1998.72301 1822.8924,2042.54731 L1822.8924,2133.5987 C1822.8924,2177.42433 1858.4609,2212.99283 1902.28609,2212.99283 C1919.06547,2212.99283 1942.81978,2203.8982 1955.30833,2192.69229 L1974.22337,2213.83921 L1993.13796,2234.98656 C1971.79553,2254.13481 1931.20243,2269.675 1902.52905,2269.675 L1902.3424,2269.675 C1827.16018,2269.675 1766.1424,2208.65722 1766.1424,2133.475 L1766.1424,2042.67278 C1766.1424,1967.49322 1827.15752,1906.4781 1902.33708,1906.4781 C1931.05524,1906.4781 1971.7339,1922.01696 1993.13841,1941.16344 L1974.23004,1962.30334 Z M2102.35504,2269.675 L2044.06703,2269.675 L2129.19203,1906.475 L2185.94203,1906.475 L2271.06703,2269.675 L2212.77901,2269.675 L2194.15792,2190.225 L2120.97613,2190.225 L2102.35504,2269.675 Z M2180.85714,2133.475 L2169.2123,2083.78904 L2157.56703,2034.10309 L2145.92175,2083.78904 L2134.27691,2133.475 L2180.85714,2133.475 Z M2514.94165,2269.675 L2514.94165,2212.925 L2390.09165,2212.925 L2390.09165,1906.475 L2333.34165,1906.475 L2333.34165,2269.675 L2514.94165,2269.675 Z M58.2880137,2904.9 L0,2904.9 L85.125,2541.7 L141.875,2541.7 L227,2904.9 L168.711986,2904.9 L150.090893,2825.45 L76.9091074,2825.45 L58.2880137,2904.9 Z M136.790111,2768.7 L125.145277,2719.01404 L113.5,2669.32809 L101.854723,2719.01404 L90.2098887,2768.7 L136.790111,2768.7 Z M498.109751,2870.21068 C523.17197,2847.84719 543.512411,2802.43566 543.512411,2768.84631 L543.512411,2711.95 L430.014628,2711.95 L430.014628,2768.7 L486.762411,2768.7 C486.762411,2768.75941 486.762855,2768.85606 486.762855,2768.91547 C486.762855,2787.03202 476.337703,2812.104 463.492251,2824.87984 C456.226325,2832.14577 447.556675,2838.22228 437.184636,2842.36239 C428.686933,2845.71862 419.16169,2848.15 407.313298,2848.15 C396.162166,2848.15 386.955898,2846.02874 378.847853,2842.9188 C367.858547,2838.70861 358.755395,2832.48834 351.134788,2824.87984 C338.289781,2812.104 327.864185,2787.03247 327.864185,2768.91547 C327.864185,2768.85606 327.864628,2768.75941 327.864628,2768.7 L327.864628,2677.77231 C327.864628,2633.94801 363.432247,2598.37995 407.256992,2598.37995 C424.036814,2598.37995 447.791566,2607.47591 460.280999,2618.68271 C472.890867,2604.5846 485.500742,2590.48651 498.110638,2576.38844 C476.706134,2557.24196 436.027468,2541.7031 407.309308,2541.7031 C332.129745,2541.7031 271.114628,2602.71822 271.114628,2677.89778 L271.114628,2768.84587 C271.114628,2802.43566 291.45507,2847.84674 316.517288,2870.21112 L316.516845,2870.21156 C317.272212,2870.88742 318.029213,2871.56413 318.80724,2872.21599 C330.765383,2882.55817 344.797991,2890.93424 361.129439,2896.86278 C374.397432,2901.64497 389.336613,2904.9 407.312411,2904.9 L407.314628,2904.9 C408.836799,2904.9 410.348273,2904.86725 411.816056,2904.81798 C429.260405,2904.25878 443.859986,2900.66276 456.865359,2895.60054 C472.798482,2889.361 486.384538,2880.70334 498.110638,2870.21156 L498.109751,2870.21068 Z M707.939257,2541.7 C776.856368,2541.7 832.789257,2597.63289 832.789257,2666.55044 C832.789257,2701.73323 809.662302,2747.03524 781.166264,2767.67096 C803.39719,2788.09476 821.439257,2829.17156 821.439257,2859.3599 L821.439257,2904.9 L764.689257,2904.9 L764.689257,2859.37941 C764.689257,2821.8548 734.234458,2791.4 696.70985,2791.4 L662.539257,2791.4 L662.539257,2904.9 L605.789257,2904.9 L605.789257,2541.7 L707.939257,2541.7 Z M662.539257,2734.65 L708.035466,2734.65 C745.62702,2734.65 776.135466,2704.14111 776.135466,2666.55 C776.135466,2628.95889 745.62702,2598.45 708.035466,2598.45 L662.539257,2598.45 L662.539257,2734.65 Z M951.813885,2541.7 L895.063885,2541.7 L895.063885,2904.9 L951.813885,2904.9 L951.813885,2541.7 Z M1150.28851,2904.9 L1150.47517,2904.9 C1179.14855,2904.9 1219.74165,2889.35981 1241.08408,2870.21156 L1222.16948,2849.06421 L1203.25444,2827.91729 C1190.76589,2839.1232 1167.01159,2848.21783 1150.23221,2848.21783 C1106.40702,2848.21783 1070.83851,2812.64933 1070.83851,2768.8237 L1070.83851,2677.77231 C1070.83851,2633.94801 1106.40613,2598.37995 1150.23088,2598.37995 C1167.0107,2598.37995 1190.76545,2607.47591 1203.25488,2618.68271 L1222.16948,2597.53579 L1241.08452,2576.38844 C1219.68002,2557.24196 1179.00135,2541.7031 1150.28319,2541.7031 C1075.10363,2541.7031 1014.08851,2602.71822 1014.08851,2677.89778 L1014.08851,2768.7 C1014.08851,2843.88222 1075.10629,2904.9 1150.28851,2904.9 Z M1416.86314,2904.9 C1479.51514,2904.9 1530.36314,2854.052 1530.36314,2791.4 L1530.36314,2541.7 L1473.61314,2541.7 L1473.61314,2791.48202 C1473.61314,2822.80802 1448.18914,2848.23202 1416.86314,2848.23202 C1385.53714,2848.23202 1360.11314,2822.80802 1360.11314,2791.48202 L1360.11314,2541.7 L1303.36314,2541.7 L1303.36314,2791.4 C1303.36314,2854.052 1354.21114,2904.9 1416.86314,2904.9 Z M1774.23777,2904.9 L1592.63777,2904.9 L1592.63777,2541.7 L1649.38777,2541.7 L1649.38777,2848.15 L1774.23777,2848.15 L1774.23777,2904.9 Z M1853.53917,2904.9 L1853.53917,2598.45 L1768.41594,2598.45 L1768.41594,2541.7 L1995.4124,2541.7 L1995.4124,2598.45 L1910.28917,2598.45 L1910.28917,2904.9 L1853.53917,2904.9 Z M2171.18703,2904.9 C2233.83903,2904.9 2284.68703,2854.052 2284.68703,2791.4 L2284.68703,2541.7 L2227.93703,2541.7 L2227.93703,2791.48202 C2227.93703,2822.80802 2202.51303,2848.23202 2171.18703,2848.23202 C2139.86103,2848.23202 2114.43703,2822.80802 2114.43703,2791.48202 L2114.43703,2541.7 L2057.68703,2541.7 L2057.68703,2791.4 C2057.68703,2854.052 2108.53503,2904.9 2171.18703,2904.9 Z M2449.11165,2541.7 C2518.02877,2541.7 2573.96165,2597.63289 2573.96165,2666.55044 C2573.96165,2701.73323 2550.8347,2747.03524 2522.33866,2767.67096 C2544.56959,2788.09476 2562.61165,2829.17156 2562.61165,2859.3599 L2562.61165,2904.9 L2505.86165,2904.9 L2505.86165,2859.37941 C2505.86165,2821.8548 2475.40686,2791.4 2437.88225,2791.4 L2403.71165,2791.4 L2403.71165,2904.9 L2346.96165,2904.9 L2346.96165,2541.7 L2449.11165,2541.7 Z M2403.71165,2734.65 L2449.20786,2734.65 C2486.79942,2734.65 2517.30786,2704.14111 2517.30786,2666.55 C2517.30786,2628.95889 2486.79942,2598.45 2449.20786,2598.45 L2403.71165,2598.45 L2403.71165,2734.65 Z M2635.10128,2904.9 L2863.23628,2904.9 L2863.23628,2848.15 L2691.85128,2848.15 L2691.85128,2734.65 L2772.43628,2734.65 L2772.43628,2677.9 L2691.85128,2677.9 L2691.85128,2598.45 L2862.10128,2598.45 L2862.10128,2541.7 L2635.10128,2541.7 L2635.10128,2904.9 Z M56.75,3176.925 L0,3176.925 L0,3540.125 L56.75,3540.125 L56.75,3176.925 Z M289.275515,3410.33243 L175.775515,3176.925 L119.025515,3176.925 L119.025515,3540.125 L175.775515,3540.125 L175.775515,3306.71757 L289.275515,3540.125 L346.025515,3540.125 L346.025515,3176.925 L289.275515,3176.925 L289.275515,3410.33243 Z M703.475885,3540.125 L703.662539,3540.125 C732.33592,3540.125 772.929018,3524.58481 794.271451,3505.43656 L775.356854,3484.28921 L756.441813,3463.14229 C743.953266,3474.3482 720.198957,3483.44283 703.419578,3483.44283 C659.594391,3483.44283 624.025885,3447.87433 624.025885,3404.0487 L624.025885,3312.99731 C624.025885,3269.17301 659.593504,3233.60495 703.418248,3233.60495 C720.19807,3233.60495 743.952822,3242.70091 756.442256,3253.90771 L775.356854,3232.76079 L794.271895,3211.61344 C772.867391,3192.46696 732.188725,3176.9281 703.470565,3176.9281 C628.291002,3176.9281 567.275885,3237.94322 567.275885,3313.12278 L567.275885,3403.925 C567.275885,3479.10722 628.293662,3540.125 703.475885,3540.125 Z M1110.79051,3403.925 C1110.80376,3403.93825 1110.80925,3403.98656 1110.80925,3404.04941 C1110.80925,3404.20114 1110.77727,3404.4376 1110.74529,3404.46989 L1110.74529,3405.78622 C1110.74529,3406.649 1110.74529,3407.51178 1110.69962,3408.37411 C1110.6544,3410.09922 1110.56351,3411.82478 1110.4274,3413.54989 C1110.2004,3416.95489 1109.83729,3420.35989 1109.33762,3423.76489 C1108.33874,3430.57489 1106.7954,3437.294 1104.79762,3443.83178 C1102.80029,3450.32389 1100.30329,3456.67989 1097.35229,3462.80889 C1094.40129,3468.98311 1090.99629,3474.93078 1087.13729,3480.56011 C1083.23262,3486.28078 1078.91962,3491.63789 1074.24351,3496.67711 C1069.29474,3501.989 1063.8924,3506.89211 1058.17174,3511.34122 C1051.81574,3516.29 1045.00574,3520.69389 1037.83262,3524.462 C1030.84129,3528.18489 1023.53162,3531.22678 1015.9954,3533.63289 C1008.5044,3536.039 1000.83162,3537.76411 993.068402,3538.80822 C987.012903,3539.64249 980.89942,3540.07092 974.797534,3540.07092 C973.259458,3540.07092 971.722117,3540.04369 970.186624,3539.98889 C962.377736,3539.71622 954.659736,3538.80822 946.987402,3537.26489 C939.360291,3535.72111 931.869291,3533.45111 924.605291,3530.591 C917.159513,3527.64 909.940736,3524.05322 903.130736,3519.83111 C896.320736,3515.56378 889.783402,3510.75111 883.790513,3505.34878 C882.292402,3504.032 880.839513,3502.67 879.432291,3501.308 C873.575513,3495.633 868.263624,3489.41311 863.542291,3482.78489 C858.911402,3476.24711 854.825402,3469.25578 851.374736,3461.99178 C847.924513,3454.72778 845.155291,3447.14589 843.066624,3439.38222 C840.932736,3431.52811 839.525513,3423.49222 838.844513,3415.41111 C838.708402,3413.41378 838.572291,3411.416 838.481402,3409.373 C838.435736,3408.37411 838.390513,3407.33 838.390513,3406.33111 L838.390513,3404.65122 C838.390513,3404.56048 838.350119,3404.24786 838.350119,3404.03601 C838.350119,3403.93007 838.360219,3403.84933 838.390513,3403.83411 L838.390513,3311.80822 C838.390513,3309.53822 838.481402,3307.26822 838.617513,3304.99822 C839.162402,3295.69122 840.660513,3286.42989 843.112291,3277.39511 C845.563624,3268.406 848.923402,3259.68911 853.145513,3251.381 C857.367624,3243.11811 862.407291,3235.264 868.218402,3228 C874.165624,3220.59989 880.884736,3213.78989 888.239624,3207.75178 C896.684291,3200.80522 905.945624,3194.90322 915.797513,3190.18189 C925.467624,3185.551 935.637402,3182.146 946.079402,3179.876 C955.429456,3177.89899 965.003587,3176.89344 974.564722,3176.89344 C975.542136,3176.89344 976.519404,3176.90395 977.496291,3176.925 C988.028736,3177.152 998.516402,3178.60489 1008.7314,3181.19278 C1019.1734,3183.87111 1029.25229,3187.86622 1038.74062,3192.90589 C1048.36551,3198.036 1057.3094,3204.34678 1065.43574,3211.61078 C1066.11674,3212.24611 1066.79774,3212.83622 1067.47874,3213.472 C1072.92674,3218.51122 1077.92074,3224.00489 1082.46074,3229.86122 C1086.95551,3235.67278 1090.95062,3241.847 1094.44651,3248.29389 C1097.9424,3254.74078 1100.8934,3261.45989 1103.29951,3268.406 C1105.70562,3275.35211 1107.52162,3282.48 1108.79274,3289.69878 C1110.06429,3297.05322 1110.74529,3304.45378 1110.79051,3311.89911 L1110.79051,3403.925 Z M1050.59029,3427.16989 C1052.90551,3419.63322 1054.04051,3411.77911 1054.1314,3403.925 L1054.1314,3311.89911 C1054.10111,3311.86882 1054.09101,3311.77295 1054.09101,3311.65355 C1054.09101,3311.41477 1054.1314,3311.08185 1054.1314,3310.99111 C1054.08574,3310.71889 1054.08574,3310.44622 1054.08574,3310.174 C1054.04051,3309.67478 1054.04051,3309.12989 1053.99529,3308.63022 C1053.94962,3307.58611 1053.85874,3306.58722 1053.76829,3305.54311 C1053.58651,3303.45489 1053.31429,3301.41189 1052.95074,3299.32322 C1052.22451,3295.23722 1051.22562,3291.19689 1049.86362,3287.29222 C1047.13962,3279.43811 1043.18974,3271.99278 1038.19574,3265.36411 C1032.74774,3258.191 1026.07429,3251.88022 1018.53762,3246.88622 C1011.09229,3241.98311 1002.92029,3238.30589 994.294291,3236.12678 C987.878333,3234.49671 981.250221,3233.66142 974.632896,3233.66142 C972.587623,3233.66142 970.543369,3233.74121 968.506736,3233.902 C959.653736,3234.62822 950.937291,3236.71689 942.765291,3240.30322 C934.366291,3243.98089 926.648291,3249.15622 919.974402,3255.467 C913.799736,3261.27811 908.578736,3268.08811 904.583624,3275.53389 C900.633736,3282.84311 897.864513,3290.74289 896.411624,3298.91489 C895.685402,3303.00089 895.276624,3307.13211 895.185736,3311.309 C895.174922,3311.43931 895.174479,3311.54104 895.174472,3311.6204 L895.174479,3311.64119 C895.174479,3311.87439 895.170232,3311.89911 894.868291,3311.89911 L895.140513,3311.89911 L895.140513,3403.925 C895.140513,3405.87711 895.185736,3407.784 895.322291,3409.69089 C895.866736,3417.49978 897.592291,3425.21778 900.406736,3432.527 C903.221624,3439.791 907.080624,3446.601 911.802402,3452.77522 C917.068624,3459.49478 923.424624,3465.39678 930.507291,3470.11811 C937.453402,3474.749 945.125736,3478.29011 953.207291,3480.51489 C960.240051,3482.44379 967.450681,3483.37673 974.713095,3483.37673 C975.655123,3483.37673 976.598017,3483.36103 977.541513,3483.32978 C985.804402,3483.05711 994.021624,3481.42289 1001.78529,3478.608 C1009.82074,3475.70222 1017.3574,3471.43489 1024.03129,3466.123 C1030.38729,3461.03811 1036.01662,3455 1040.55662,3448.23522 C1044.91529,3441.74311 1048.32029,3434.61522 1050.59029,3427.16989 Z M1229.81514,3176.925 L1173.06514,3176.925 L1173.06514,3540.125 L1229.81514,3540.125 L1229.81514,3176.925 Z M1507.74066,3540.125 L1564.49066,3540.125 L1564.49066,3176.925 L1507.74066,3176.925 L1428.29066,3313.125 L1348.84066,3176.925 L1292.09066,3176.925 L1292.09066,3540.125 L1348.84066,3540.125 L1348.84066,3289.55291 L1364.05586,3315.63663 L1379.27151,3341.71991 L1403.78086,3383.73663 L1428.29066,3425.75291 L1452.80089,3383.73663 L1477.31024,3341.71991 L1492.52589,3315.63663 L1507.74066,3289.55291 L1507.74066,3540.125 Z M1626.7644,3540.125 L1626.7644,3176.925 L1711.8894,3176.925 C1765.14484,3176.92589 1808.36706,3220.14899 1808.36706,3273.40443 C1808.36706,3289.19246 1801.38326,3312.74947 1792.77854,3325.98686 C1826.44725,3343.55719 1853.77238,3388.6393 1853.77238,3426.61658 C1853.77238,3489.27301 1802.92083,3540.12456 1740.2644,3540.125 L1626.7644,3540.125 Z M1780.39286,3466.75346 C1789.59611,3457.57813 1797.06583,3439.58439 1797.06583,3426.58864 C1797.06583,3395.2826 1771.65823,3369.875 1740.35218,3369.875 L1683.5144,3369.875 L1683.5144,3483.375 L1740.41824,3483.375 C1753.35902,3483.375 1771.26719,3475.92878 1780.39286,3466.75346 Z M1683.5144,3233.675 L1683.5144,3313.125 L1711.94659,3313.125 C1733.8747,3313.125 1751.67159,3295.32811 1751.67159,3273.4 C1751.67159,3251.47189 1733.8747,3233.675 1711.94659,3233.675 L1683.5144,3233.675 Z M2018.18903,3176.925 C2087.10614,3176.925 2143.03903,3232.85789 2143.03903,3301.77544 C2143.03903,3336.95823 2119.91207,3382.26024 2091.41603,3402.89596 C2113.64696,3423.31976 2131.68903,3464.39656 2131.68903,3494.5849 L2131.68903,3540.125 L2074.93903,3540.125 L2074.93903,3494.60441 C2074.93903,3457.0798 2044.48423,3426.625 2006.95962,3426.625 L1972.78903,3426.625 L1972.78903,3540.125 L1916.03903,3540.125 L1916.03903,3176.925 L2018.18903,3176.925 Z M1972.78903,3369.875 L2018.28524,3369.875 C2055.87679,3369.875 2086.38524,3339.36611 2086.38524,3301.775 C2086.38524,3264.18389 2055.87679,3233.675 2018.28524,3233.675 L1972.78903,3233.675 L1972.78903,3369.875 Z M2252.25167,3540.125 L2193.96365,3540.125 L2279.08865,3176.925 L2335.83865,3176.925 L2420.96365,3540.125 L2362.67564,3540.125 L2344.05455,3460.675 L2270.87276,3460.675 L2252.25167,3540.125 Z M2330.75377,3403.925 L2319.10893,3354.23904 L2307.46365,3304.55309 L2295.81838,3354.23904 L2284.17354,3403.925 L2330.75377,3403.925 Z" id="Welcome-to-Abc-Platf" fill="#FF585D"></path>
    </g>
</svg>
